<svg width="289" height="22" viewBox="0 0 289 22" fill="none" xmlns="http://www.w3.org/2000/svg">
<mask id="path-1-outside-1_161_1510" maskUnits="userSpaceOnUse" x="0" y="0" width="289" height="22" fill="black">
<rect fill="white" width="289" height="22"/>
<path d="M29.9768 1.74074V20.2593H23.8302V4.1358L25.0094 4.28395L18.6871 20.2593H12.2897L5.96745 4.35802L7.1466 4.18519V20.2593H1V1.74074H11.0102L16.6299 16.8272H14.3971L19.9666 1.74074H29.9768ZM37.4629 17.1481V12.0864H50.2829V17.1481H37.4629ZM48.301 1.74074L56.555 20.2593H49.6557L43.1579 4.55556H44.8137L38.3159 20.2593H31.4166L39.6706 1.74074H48.301ZM57.9873 1.74074H64.4601V20.2593H57.9873V1.74074ZM72.4883 1.74074H78.961V20.2593H72.4883V1.74074ZM61.6502 7.98765H75.0222V13.6173H61.6502V7.98765ZM81.973 1.74074H88.4457V20.2593H81.973V1.74074ZM106.808 17.6914V12.7284H112.704C113.223 12.7284 113.658 12.6461 114.009 12.4815C114.377 12.3169 114.653 12.0782 114.837 11.7654C115.037 11.4362 115.138 11.0412 115.138 10.5802C115.138 10.1193 115.037 9.73251 114.837 9.41975C114.653 9.09054 114.377 8.84362 114.009 8.67901C113.658 8.5144 113.223 8.4321 112.704 8.4321H106.834V3.46914H113.106C114.912 3.46914 116.451 3.76543 117.722 4.35802C118.993 4.93416 119.963 5.7572 120.632 6.82716C121.318 7.88066 121.661 9.13169 121.661 10.5802C121.661 12.0123 121.318 13.2634 120.632 14.3333C119.963 15.4033 118.993 16.2346 117.722 16.8272C116.451 17.4033 114.912 17.6914 113.106 17.6914H106.808ZM99.0562 17.6914C97.2499 17.6914 95.7112 17.4033 94.44 16.8272C93.1689 16.2346 92.1905 15.4033 91.5047 14.3333C90.8357 13.2634 90.5012 12.0123 90.5012 10.5802C90.5012 9.13169 90.8357 7.88066 91.5047 6.82716C92.1905 5.7572 93.1689 4.93416 94.44 4.35802C95.7112 3.76543 97.2499 3.46914 99.0562 3.46914H105.328V8.4321H99.4577C98.9392 8.4321 98.4959 8.5144 98.128 8.67901C97.7768 8.84362 97.5008 9.09054 97.3001 9.41975C97.1161 9.73251 97.0241 10.1193 97.0241 10.5802C97.0241 11.0412 97.1161 11.4362 97.3001 11.7654C97.5008 12.0782 97.7768 12.3169 98.128 12.4815C98.4959 12.6461 98.9392 12.7284 99.4577 12.7284H105.353V17.6914H99.0562ZM102.845 21V1H109.317V21H102.845ZM140.309 8.80247V13.1975H126.134V8.80247H140.309ZM130.575 11L129.421 17.8889L126.962 15.2222H141.237V20.2593H123.023L124.403 11L123.023 1.74074H141.112V6.77778H126.962L129.421 4.11111L130.575 11ZM165.241 12.2346C165.041 13.93 164.447 15.4115 163.46 16.679C162.49 17.9465 161.202 18.9342 159.597 19.642C157.991 20.3498 156.151 20.7037 154.077 20.7037C151.836 20.7037 149.879 20.3004 148.206 19.4938C146.534 18.6872 145.229 17.5597 144.293 16.1111C143.373 14.6461 142.913 12.9424 142.913 11C142.913 9.05761 143.373 7.36214 144.293 5.91358C145.229 4.44856 146.534 3.31276 148.206 2.50617C149.879 1.69959 151.836 1.2963 154.077 1.2963C156.151 1.2963 157.991 1.65021 159.597 2.35802C161.202 3.06584 162.49 4.0535 163.46 5.32099C164.447 6.58848 165.041 8.06996 165.241 9.76543H158.744C158.593 9.12346 158.317 8.58025 157.916 8.1358C157.514 7.6749 156.987 7.32922 156.335 7.09876C155.699 6.85185 154.947 6.72839 154.077 6.72839C153.107 6.72839 152.271 6.90123 151.568 7.24691C150.883 7.57613 150.356 8.06173 149.988 8.7037C149.62 9.34568 149.436 10.1111 149.436 11C149.436 11.8889 149.62 12.6543 149.988 13.2963C150.356 13.9218 150.883 14.4074 151.568 14.7531C152.271 15.0988 153.107 15.2716 154.077 15.2716C154.947 15.2716 155.699 15.1646 156.335 14.9506C156.987 14.7202 157.514 14.3827 157.916 13.9383C158.317 13.4774 158.593 12.9095 158.744 12.2346H165.241ZM172.637 4.48148H179.11V20.2593H172.637V4.48148ZM165.863 1.74074H185.883V7.41975H165.863V1.74074ZM192.427 20.2593L196.015 14.037H196.115L203.115 1.74074H210.09L199.402 20.2593H192.427ZM195.839 18.0123L186.381 1.74074H193.506L200.506 13.9383L195.839 18.0123ZM220.452 20.7037C218.194 20.7037 216.212 20.3004 214.506 19.4938C212.816 18.6872 211.495 17.5597 210.542 16.1111C209.605 14.6461 209.137 12.9424 209.137 11C209.137 9.05761 209.605 7.36214 210.542 5.91358C211.495 4.44856 212.816 3.31276 214.506 2.50617C216.212 1.69959 218.194 1.2963 220.452 1.2963C222.475 1.2963 224.29 1.64198 225.896 2.33333C227.518 3.00823 228.839 3.95473 229.86 5.17284C230.88 6.39095 231.499 7.82305 231.716 9.46914H225.344C225.193 8.82716 224.9 8.29218 224.466 7.8642C224.048 7.41975 223.504 7.09053 222.835 6.87654C222.166 6.64609 221.388 6.53086 220.502 6.53086C219.448 6.53086 218.545 6.7037 217.792 7.04938C217.056 7.39506 216.488 7.90535 216.086 8.58025C215.702 9.23868 215.509 10.0453 215.509 11C215.509 11.9547 215.702 12.7695 216.086 13.4444C216.488 14.1029 217.056 14.6049 217.792 14.9506C218.545 15.2963 219.448 15.4691 220.502 15.4691C221.405 15.4691 222.191 15.3621 222.86 15.1481C223.529 14.9177 224.073 14.5802 224.491 14.1358C224.909 13.6914 225.193 13.1564 225.344 12.5309H231.716C231.499 14.1605 230.88 15.5926 229.86 16.8272C228.839 18.0453 227.518 19 225.896 19.6914C224.29 20.3663 222.475 20.7037 220.452 20.7037ZM212.599 13.0494V8.95062H223.562V13.0494H212.599ZM262.802 1.74074V20.2593H256.655V4.1358L257.834 4.28395L251.512 20.2593H245.115L238.792 4.35802L239.971 4.18519V20.2593H233.825V1.74074H243.835L249.455 16.8272H247.222L252.792 1.74074H262.802ZM276.56 20.7037C274.268 20.7037 272.261 20.3004 270.539 19.4938C268.833 18.6872 267.503 17.5597 266.55 16.1111C265.596 14.6461 265.12 12.9424 265.12 11C265.12 9.05761 265.596 7.36214 266.55 5.91358C267.503 4.44856 268.833 3.31276 270.539 2.50617C272.261 1.69959 274.268 1.2963 276.56 1.2963C278.851 1.2963 280.85 1.69959 282.556 2.50617C284.279 3.31276 285.617 4.44856 286.57 5.91358C287.523 7.36214 288 9.05761 288 11C288 12.9424 287.523 14.6461 286.57 16.1111C285.617 17.5597 284.279 18.6872 282.556 19.4938C280.85 20.3004 278.851 20.7037 276.56 20.7037ZM276.56 15.0247C277.58 15.0247 278.458 14.8683 279.194 14.5556C279.93 14.2263 280.49 13.7654 280.875 13.1728C281.276 12.5638 281.477 11.8395 281.477 11C281.477 10.1605 281.276 9.44444 280.875 8.85185C280.49 8.2428 279.93 7.78189 279.194 7.46914C278.458 7.13992 277.58 6.97531 276.56 6.97531C275.54 6.97531 274.661 7.13992 273.926 7.46914C273.19 7.78189 272.621 8.2428 272.22 8.85185C271.835 9.44444 271.643 10.1605 271.643 11C271.643 11.8395 271.835 12.5638 272.22 13.1728C272.621 13.7654 273.19 14.2263 273.926 14.5556C274.661 14.8683 275.54 15.0247 276.56 15.0247Z"/>
</mask>
<path d="M29.9768 1.74074V20.2593H23.8302V4.1358L25.0094 4.28395L18.6871 20.2593H12.2897L5.96745 4.35802L7.1466 4.18519V20.2593H1V1.74074H11.0102L16.6299 16.8272H14.3971L19.9666 1.74074H29.9768ZM37.4629 17.1481V12.0864H50.2829V17.1481H37.4629ZM48.301 1.74074L56.555 20.2593H49.6557L43.1579 4.55556H44.8137L38.3159 20.2593H31.4166L39.6706 1.74074H48.301ZM57.9873 1.74074H64.4601V20.2593H57.9873V1.74074ZM72.4883 1.74074H78.961V20.2593H72.4883V1.74074ZM61.6502 7.98765H75.0222V13.6173H61.6502V7.98765ZM81.973 1.74074H88.4457V20.2593H81.973V1.74074ZM106.808 17.6914V12.7284H112.704C113.223 12.7284 113.658 12.6461 114.009 12.4815C114.377 12.3169 114.653 12.0782 114.837 11.7654C115.037 11.4362 115.138 11.0412 115.138 10.5802C115.138 10.1193 115.037 9.73251 114.837 9.41975C114.653 9.09054 114.377 8.84362 114.009 8.67901C113.658 8.5144 113.223 8.4321 112.704 8.4321H106.834V3.46914H113.106C114.912 3.46914 116.451 3.76543 117.722 4.35802C118.993 4.93416 119.963 5.7572 120.632 6.82716C121.318 7.88066 121.661 9.13169 121.661 10.5802C121.661 12.0123 121.318 13.2634 120.632 14.3333C119.963 15.4033 118.993 16.2346 117.722 16.8272C116.451 17.4033 114.912 17.6914 113.106 17.6914H106.808ZM99.0562 17.6914C97.2499 17.6914 95.7112 17.4033 94.44 16.8272C93.1689 16.2346 92.1905 15.4033 91.5047 14.3333C90.8357 13.2634 90.5012 12.0123 90.5012 10.5802C90.5012 9.13169 90.8357 7.88066 91.5047 6.82716C92.1905 5.7572 93.1689 4.93416 94.44 4.35802C95.7112 3.76543 97.2499 3.46914 99.0562 3.46914H105.328V8.4321H99.4577C98.9392 8.4321 98.4959 8.5144 98.128 8.67901C97.7768 8.84362 97.5008 9.09054 97.3001 9.41975C97.1161 9.73251 97.0241 10.1193 97.0241 10.5802C97.0241 11.0412 97.1161 11.4362 97.3001 11.7654C97.5008 12.0782 97.7768 12.3169 98.128 12.4815C98.4959 12.6461 98.9392 12.7284 99.4577 12.7284H105.353V17.6914H99.0562ZM102.845 21V1H109.317V21H102.845ZM140.309 8.80247V13.1975H126.134V8.80247H140.309ZM130.575 11L129.421 17.8889L126.962 15.2222H141.237V20.2593H123.023L124.403 11L123.023 1.74074H141.112V6.77778H126.962L129.421 4.11111L130.575 11ZM165.241 12.2346C165.041 13.93 164.447 15.4115 163.46 16.679C162.49 17.9465 161.202 18.9342 159.597 19.642C157.991 20.3498 156.151 20.7037 154.077 20.7037C151.836 20.7037 149.879 20.3004 148.206 19.4938C146.534 18.6872 145.229 17.5597 144.293 16.1111C143.373 14.6461 142.913 12.9424 142.913 11C142.913 9.05761 143.373 7.36214 144.293 5.91358C145.229 4.44856 146.534 3.31276 148.206 2.50617C149.879 1.69959 151.836 1.2963 154.077 1.2963C156.151 1.2963 157.991 1.65021 159.597 2.35802C161.202 3.06584 162.49 4.0535 163.46 5.32099C164.447 6.58848 165.041 8.06996 165.241 9.76543H158.744C158.593 9.12346 158.317 8.58025 157.916 8.1358C157.514 7.6749 156.987 7.32922 156.335 7.09876C155.699 6.85185 154.947 6.72839 154.077 6.72839C153.107 6.72839 152.271 6.90123 151.568 7.24691C150.883 7.57613 150.356 8.06173 149.988 8.7037C149.62 9.34568 149.436 10.1111 149.436 11C149.436 11.8889 149.62 12.6543 149.988 13.2963C150.356 13.9218 150.883 14.4074 151.568 14.7531C152.271 15.0988 153.107 15.2716 154.077 15.2716C154.947 15.2716 155.699 15.1646 156.335 14.9506C156.987 14.7202 157.514 14.3827 157.916 13.9383C158.317 13.4774 158.593 12.9095 158.744 12.2346H165.241ZM172.637 4.48148H179.11V20.2593H172.637V4.48148ZM165.863 1.74074H185.883V7.41975H165.863V1.74074ZM192.427 20.2593L196.015 14.037H196.115L203.115 1.74074H210.09L199.402 20.2593H192.427ZM195.839 18.0123L186.381 1.74074H193.506L200.506 13.9383L195.839 18.0123ZM220.452 20.7037C218.194 20.7037 216.212 20.3004 214.506 19.4938C212.816 18.6872 211.495 17.5597 210.542 16.1111C209.605 14.6461 209.137 12.9424 209.137 11C209.137 9.05761 209.605 7.36214 210.542 5.91358C211.495 4.44856 212.816 3.31276 214.506 2.50617C216.212 1.69959 218.194 1.2963 220.452 1.2963C222.475 1.2963 224.29 1.64198 225.896 2.33333C227.518 3.00823 228.839 3.95473 229.86 5.17284C230.88 6.39095 231.499 7.82305 231.716 9.46914H225.344C225.193 8.82716 224.9 8.29218 224.466 7.8642C224.048 7.41975 223.504 7.09053 222.835 6.87654C222.166 6.64609 221.388 6.53086 220.502 6.53086C219.448 6.53086 218.545 6.7037 217.792 7.04938C217.056 7.39506 216.488 7.90535 216.086 8.58025C215.702 9.23868 215.509 10.0453 215.509 11C215.509 11.9547 215.702 12.7695 216.086 13.4444C216.488 14.1029 217.056 14.6049 217.792 14.9506C218.545 15.2963 219.448 15.4691 220.502 15.4691C221.405 15.4691 222.191 15.3621 222.86 15.1481C223.529 14.9177 224.073 14.5802 224.491 14.1358C224.909 13.6914 225.193 13.1564 225.344 12.5309H231.716C231.499 14.1605 230.88 15.5926 229.86 16.8272C228.839 18.0453 227.518 19 225.896 19.6914C224.29 20.3663 222.475 20.7037 220.452 20.7037ZM212.599 13.0494V8.95062H223.562V13.0494H212.599ZM262.802 1.74074V20.2593H256.655V4.1358L257.834 4.28395L251.512 20.2593H245.115L238.792 4.35802L239.971 4.18519V20.2593H233.825V1.74074H243.835L249.455 16.8272H247.222L252.792 1.74074H262.802ZM276.56 20.7037C274.268 20.7037 272.261 20.3004 270.539 19.4938C268.833 18.6872 267.503 17.5597 266.55 16.1111C265.596 14.6461 265.12 12.9424 265.12 11C265.12 9.05761 265.596 7.36214 266.55 5.91358C267.503 4.44856 268.833 3.31276 270.539 2.50617C272.261 1.69959 274.268 1.2963 276.56 1.2963C278.851 1.2963 280.85 1.69959 282.556 2.50617C284.279 3.31276 285.617 4.44856 286.57 5.91358C287.523 7.36214 288 9.05761 288 11C288 12.9424 287.523 14.6461 286.57 16.1111C285.617 17.5597 284.279 18.6872 282.556 19.4938C280.85 20.3004 278.851 20.7037 276.56 20.7037ZM276.56 15.0247C277.58 15.0247 278.458 14.8683 279.194 14.5556C279.93 14.2263 280.49 13.7654 280.875 13.1728C281.276 12.5638 281.477 11.8395 281.477 11C281.477 10.1605 281.276 9.44444 280.875 8.85185C280.49 8.2428 279.93 7.78189 279.194 7.46914C278.458 7.13992 277.58 6.97531 276.56 6.97531C275.54 6.97531 274.661 7.13992 273.926 7.46914C273.19 7.78189 272.621 8.2428 272.22 8.85185C271.835 9.44444 271.643 10.1605 271.643 11C271.643 11.8395 271.835 12.5638 272.22 13.1728C272.621 13.7654 273.19 14.2263 273.926 14.5556C274.661 14.8683 275.54 15.0247 276.56 15.0247Z" stroke="white" stroke-opacity="0.1" mask="url(#path-1-outside-1_161_1510)"/>
</svg>
