<svg width="220" height="17" viewBox="0 0 220 17" fill="none" xmlns="http://www.w3.org/2000/svg">
<path d="M124.078 15.2693L120.766 2.684H118.776L122.354 16.3H125.779L128.229 4.02612L130.66 16.3H133.971L137.549 2.684H135.616L132.344 15.1327L129.875 2.684H126.584L124.078 15.2693Z" fill="white" fill-opacity="0.9"/>
<path d="M154.508 9.5111C154.508 8.25337 154.316 7.16642 153.935 6.25225C153.553 5.33809 153.015 4.58265 152.327 3.98593C151.638 3.38921 150.815 2.95122 149.858 2.67195C148.902 2.39267 147.848 2.25404 146.7 2.25404C145.551 2.25404 144.499 2.40674 143.541 2.71213C142.582 3.01752 141.762 3.47159 141.072 4.07433C140.382 4.67708 139.846 5.4285 139.465 6.33061C139.081 7.23272 138.889 8.28551 138.889 9.491C138.889 10.7226 139.081 11.8015 139.465 12.7298C139.848 13.656 140.384 14.4315 141.072 15.0543C141.762 15.6772 142.584 16.1433 143.541 16.4547C144.497 16.7661 145.551 16.9229 146.7 16.9229C147.848 16.9229 148.9 16.7601 149.858 16.4366C150.815 16.1132 151.638 15.639 152.327 15.0162C153.017 14.3933 153.553 13.6218 153.935 12.7016C154.316 11.7814 154.508 10.7186 154.508 9.5111ZM140.88 9.45283C140.88 8.55876 141.016 7.76916 141.291 7.09007C141.566 6.40897 141.955 5.83837 142.459 5.37827C142.964 4.91818 143.576 4.56658 144.296 4.32749C145.017 4.08639 145.818 3.96785 146.698 3.96785C147.577 3.96785 148.378 4.08438 149.099 4.31744C149.821 4.5505 150.432 4.89809 150.936 5.35818C151.44 5.81828 151.829 6.38888 152.104 7.06998C152.379 7.75108 152.515 8.54469 152.515 9.45283C152.515 10.3469 152.379 11.1486 152.104 11.8558C151.829 12.563 151.44 13.1657 150.936 13.664C150.432 14.1623 149.819 14.546 149.099 14.8112C148.378 15.0764 147.577 15.2111 146.698 15.2111C145.818 15.2111 145.017 15.0845 144.296 14.8313C143.574 14.5782 142.962 14.2085 142.459 13.7223C141.955 13.2361 141.566 12.6353 141.291 11.9221C141.018 11.2108 140.88 10.3871 140.88 9.45283Z" fill="white" fill-opacity="0.9"/>
<path d="M170.622 16.3V2.684H168.766V14.5882H161.148L160.727 8.32369C160.638 7.06596 160.446 6.0634 160.153 5.318C159.859 4.57261 159.489 4.00401 159.043 3.61625C158.596 3.22647 158.082 2.97332 157.503 2.85679C156.921 2.74026 156.307 2.682 155.656 2.682V4.47215C156.307 4.47215 156.827 4.56055 157.216 4.73535C157.605 4.91014 157.912 5.1633 158.135 5.49481C158.359 5.82631 158.515 6.23015 158.604 6.71034C158.693 7.19053 158.77 7.73501 158.833 8.34378L159.426 16.3H170.622Z" fill="white" fill-opacity="0.9"/>
<path d="M188.154 9.5111C188.154 8.25337 187.963 7.16642 187.581 6.25225C187.2 5.33809 186.662 4.58265 185.974 3.98593C185.284 3.38921 184.462 2.95122 183.505 2.67195C182.548 2.39267 181.495 2.25404 180.346 2.25404C179.198 2.25404 178.146 2.40674 177.187 2.71213C176.228 3.01752 175.408 3.47159 174.718 4.07433C174.028 4.67708 173.493 5.4285 173.111 6.33061C172.728 7.23272 172.536 8.28551 172.536 9.491C172.536 10.7226 172.728 11.8015 173.111 12.7298C173.495 13.656 174.03 14.4315 174.718 15.0543C175.408 15.6772 176.23 16.1433 177.187 16.4547C178.144 16.7661 179.196 16.9229 180.344 16.9229C181.493 16.9229 182.544 16.7601 183.503 16.4366C184.46 16.1132 185.282 15.639 185.972 15.0162C186.662 14.3933 187.198 13.6218 187.579 12.7016C187.963 11.7814 188.154 10.7186 188.154 9.5111ZM174.526 9.45283C174.526 8.55876 174.663 7.76916 174.938 7.09007C175.212 6.40897 175.602 5.83837 176.106 5.37827C176.61 4.91818 177.223 4.56658 177.942 4.32749C178.664 4.08639 179.464 3.96785 180.344 3.96785C181.224 3.96785 182.024 4.08438 182.746 4.31744C183.467 4.5505 184.078 4.89809 184.582 5.35818C185.086 5.81828 185.476 6.38888 185.751 7.06998C186.025 7.75108 186.162 8.54469 186.162 9.45283C186.162 10.3469 186.025 11.1486 185.751 11.8558C185.476 12.563 185.086 13.1657 184.582 13.664C184.078 14.1623 183.465 14.546 182.746 14.8112C182.024 15.0764 181.224 15.2111 180.344 15.2111C179.464 15.2111 178.664 15.0845 177.942 14.8313C177.221 14.5782 176.608 14.2085 176.106 13.7223C175.602 13.2361 175.212 12.6353 174.938 11.9221C174.663 11.2108 174.526 10.3871 174.526 9.45283Z" fill="white" fill-opacity="0.9"/>
<path d="M191.177 2.684V-0.000221252H189.301V4.3958H189.684C190.335 4.43398 190.874 4.70923 191.301 5.22156C191.728 5.7339 192.076 6.37481 192.345 7.14834C192.614 7.91985 192.818 8.76972 192.958 9.69594C193.098 10.6222 193.197 11.5202 193.254 12.3902C193.312 13.2582 193.343 14.0478 193.349 14.753C193.355 15.4602 193.371 15.9745 193.397 16.3H204.038V4.3958H205.931V-0.000221252H204.055V2.684H191.177ZM195.215 14.5882C195.178 13.8107 195.132 12.9568 195.081 12.0306C195.03 11.1023 194.927 10.1761 194.775 9.2479C194.622 8.31967 194.407 7.43565 194.134 6.5918C193.859 5.74796 193.48 5.01663 192.995 4.39379H202.164V14.5882H195.215Z" fill="white" fill-opacity="0.9"/>
<path d="M220 4.3958V2.684H207.655V4.3958H212.842V14.5882H207.655V16.3H220V14.5882H214.718V4.3958H220Z" fill="white" fill-opacity="0.9"/>
<path d="M16.6147 16.3603V2.59359H15.6402V16.2699H16.2174L8.83218 2.59359H7.7845L0.39733 16.2699H0.974545V2.59359H0V16.3603H1.4806L8.77683 2.72218H7.85566L15.1341 16.3603H16.6147Z" fill="white" fill-opacity="0.9"/>
<path d="M26.4768 16.3603L33.3223 2.59359H32.1837L25.5378 16.1051H26.4234L19.7578 2.59359H18.6211L25.4647 16.3603H26.4768ZM21.0941 6.26632V7.1845H30.7031V6.26632H21.0941Z" fill="white" fill-opacity="0.9"/>
<path d="M35.3268 16.3603H36.3389V2.59359H35.3268V16.3603ZM35.7952 9.93704H47.4265V9.01885H35.7952V9.93704ZM46.703 16.3603H47.7151V2.59359H46.703V16.3603Z" fill="white" fill-opacity="0.9"/>
<path d="M51.218 16.3603H52.2301V2.59359H51.218V16.3603Z" fill="white" fill-opacity="0.9"/>
<path d="M59.8881 5.2738C58.8641 5.2738 57.9587 5.46869 57.17 5.86047C56.3813 6.25226 55.7645 6.79272 55.3198 7.48387C54.875 8.17501 54.6516 8.96662 54.6516 9.86069C54.6516 10.7668 54.875 11.5604 55.3198 12.2476C55.7645 12.9327 56.3833 13.4711 57.17 13.8629C57.9587 14.2547 58.8641 14.4496 59.8881 14.4496H64.8735V13.5314H59.8703C59.0282 13.5314 58.2928 13.3787 57.6662 13.0713C57.0395 12.7659 56.5552 12.34 56.2113 11.7955C55.8673 11.251 55.6973 10.6061 55.6973 9.85868C55.6973 9.12534 55.8693 8.48241 56.2113 7.93191C56.5533 7.3814 57.0395 6.95345 57.6662 6.64605C58.2928 6.34066 59.0262 6.18796 59.8703 6.18796H64.8912V5.26978H59.8881V5.2738ZM64.403 2.41076V16.5451H65.4151V2.41076H64.403ZM64.9268 5.2738V6.19198H69.9478C70.7899 6.19198 71.5253 6.34468 72.1499 6.65007C72.7766 6.95546 73.2609 7.38341 73.6048 7.93593C73.9488 8.48844 74.1188 9.12936 74.1188 9.8627C74.1188 10.6081 73.9468 11.255 73.6048 11.7995C73.2609 12.344 72.7766 12.7699 72.1499 13.0753C71.5233 13.3807 70.7899 13.5354 69.9478 13.5354H64.9446V14.4516H69.93C70.9658 14.4516 71.8752 14.2547 72.656 13.8649C73.4388 13.4731 74.0516 12.9347 74.4983 12.2496C74.9431 11.5645 75.1665 10.7688 75.1665 9.8627C75.1665 8.96863 74.9431 8.17702 74.4983 7.48588C74.0535 6.79473 73.4388 6.25226 72.656 5.86248C71.8732 5.4707 70.9639 5.27581 69.93 5.27581H64.9268V5.2738Z" fill="white" fill-opacity="0.9"/>
<path d="M79.2287 9.47694L78.1099 2.68601L77.4595 3.51177H88.1143V2.59359H77.0977L78.2364 9.47694L77.0977 16.3603H88.0253V15.4421H77.4595L78.1099 16.2498L79.2287 9.47694ZM87.6636 9.93704V9.01885H78.6515V9.93704H87.6636Z" fill="white" fill-opacity="0.9"/>
<path d="M104.134 7.733C104.013 6.6802 103.644 5.74997 103.023 4.94229C102.402 4.13461 101.59 3.50374 100.586 3.05168C99.5795 2.59962 98.4389 2.37259 97.1639 2.37259C95.6951 2.37259 94.4063 2.67195 93.2993 3.27268C92.1923 3.87141 91.3304 4.70722 90.7177 5.7781C90.1029 6.84897 89.7965 8.08259 89.7965 9.47694C89.7965 10.8833 90.1029 12.121 90.7177 13.1858C91.3324 14.2507 92.1923 15.0825 93.2993 15.6812C94.4063 16.2799 95.6951 16.5813 97.1639 16.5813C98.4409 16.5813 99.5815 16.3543 100.586 15.9022C101.59 15.4501 102.404 14.8213 103.023 14.0196C103.644 13.218 104.013 12.2857 104.134 11.2209H103.086C102.942 12.115 102.604 12.8905 102.074 13.5515C101.544 14.2125 100.858 14.7228 100.016 15.0845C99.1723 15.4461 98.2096 15.627 97.1263 15.627C95.8632 15.627 94.7582 15.3738 93.8113 14.8655C92.8664 14.3572 92.135 13.6439 91.6171 12.7277C91.0992 11.8096 90.8402 10.7266 90.8402 9.47895C90.8402 8.24332 91.0992 7.1624 91.6171 6.23819C92.135 5.31398 92.8664 4.59872 93.8113 4.09041C94.7562 3.58209 95.8612 3.32894 97.1263 3.32894C98.2096 3.32894 99.1723 3.50976 100.016 3.87141C100.858 4.23306 101.544 4.74338 102.074 5.40439C102.604 6.0654 102.94 6.84295 103.086 7.73501H104.134V7.733Z" fill="white" fill-opacity="0.9"/>
<path d="M104.316 16.3603H117.392V15.4421H104.316V16.3603ZM110.347 15.8098H111.359V2.59359H110.347V15.8098Z" fill="white" fill-opacity="0.9"/>
</svg>
