<?xml version="1.0" encoding="utf-8"?>
<!-- Generator: Adobe Illustrator 25.2.3, SVG Export Plug-In . SVG Version: 6.00 Build 0)  -->
<svg version="1.1" id="Layer_1" xmlns="http://www.w3.org/2000/svg" xmlns:xlink="http://www.w3.org/1999/xlink" x="0px" y="0px"
	 viewBox="0 0 1885.8 178.58" style="enable-background:new 0 0 1885.8 178.58;" xml:space="preserve">
<style type="text/css">
	.st0{fill:none;stroke:#FFFFFF;stroke-width:0.5;stroke-miterlimit:10;}
</style>
<path class="st0" d="M138.5,4.12h88.17v141.15H159l0.19-69.03l-31.9,69.03H99.64L67.93,76.24l0.19,69.03H0.25V4.12h90.68
	l23.59,54.33L138.5,4.12z M236.93,78.37v-7.35c0-40.03,30.94-70.77,99.39-70.77c68.45,0,99.39,30.74,99.39,70.77v7.35
	c0,40.03-30.94,70.77-99.39,70.77C267.87,149.14,236.93,118.39,236.93,78.37z M359.13,75.47v-1.55c0-10.25-7.15-17.6-22.82-17.6
	c-15.66,0-23.01,7.35-23.01,17.6v1.55c0,10.25,7.35,17.6,23.01,17.6C351.98,93.06,359.13,85.71,359.13,75.47z M473.22,4.12h164.74
	v141.15h-71.15V57.1h-27.26l-0.58,14.7c-2.13,53.17-24.17,76.38-69.03,76.38c-13.34,0-24.75-1.93-29.39-2.9v-55.3
	c3.29,0.39,7.73,0.77,11.79,0.77c11.8,0,18.18-6.38,18.76-27.07L473.22,4.12z M648.41,78.37v-7.35c0-40.03,30.94-70.77,99.39-70.77
	c68.45,0,99.39,30.74,99.39,70.77v7.35c0,40.03-30.94,70.77-99.39,70.77C679.35,149.14,648.41,118.39,648.41,78.37z M770.61,75.47
	v-1.55c0-10.25-7.16-17.6-22.82-17.6c-15.66,0-23.01,7.35-23.01,17.6v1.55c0,10.25,7.35,17.6,23.01,17.6
	C763.46,93.06,770.61,85.71,770.61,75.47z M1048.67,92.87h27.26v85.46h-70.38v-33.06h-83.53v33.06h-70.19V92.87h25.14
	c3.48-7.73,6.19-19.53,6.96-37.7l2.32-51.05h162.42V92.87z M979.06,94.99v-40.6h-28.04l-0.39,13.92c-0.39,11.8-1.93,20.3-4.45,26.68
	H979.06z M1184.22,35.25c61.29,0,81.21,19.92,81.21,55.49c0,34.61-19.92,54.53-81.21,54.53h-99V4.12h71.35v31.13H1184.22z
	 M1181.32,97.12c8.12,0,11.02-3.09,11.02-8.12c0-5.22-2.9-8.12-11.02-8.12h-24.75v16.24H1181.32z M1337.95,61.35V4.12H1517v57.23
	h-51.82v83.92h-75.41V61.35H1337.95z M1631.66,4.12h74.84l-38.68,86.24c-18.37,38.09-42.15,58.78-93.58,58.78
	c-17.21,0-31.52-2.13-39.64-3.87V97.51c3.48,0.39,7.54,0.97,11.21,0.97c8.51,0,10.44-1.93,12.18-4.45l-41-89.91h76.77l18.76,59.94
	L1631.66,4.12z M1706.5,61.35V4.12h179.05v57.23h-51.82v83.92h-75.41V61.35H1706.5z"/>
</svg>
