<svg width="610" height="232" viewBox="0 0 610 232" fill="none" xmlns="http://www.w3.org/2000/svg">
<path d="M47.03 20.57L38.49 0.899999H5.66V52H30.23L30.16 27.01L41.64 52H51.65L63.2 27.01L63.13 52H87.63V0.899999H55.71L47.03 20.57ZM116.335 31.84L116.475 14.9H92.8849V52H119.345L130.405 34.92L130.265 52H153.855V14.9H127.395L116.335 31.84ZM171.027 31.98C161.857 31.98 157.867 35.97 157.867 42.48C157.867 48.85 161.367 52.7 168.717 53.26C166.757 56.27 164.377 59.28 162.207 61.8H176.067C179.077 57.74 184.117 50.81 184.187 42.97C184.257 35.97 180.197 31.98 171.027 31.98ZM36.32 106.6L29.53 84.9H0.2L16.58 117.45C15.95 118.36 15.25 119.06 12.17 119.06C10.84 119.06 9.37 118.85 8.11 118.71V136C11.05 136.63 16.23 137.4 22.46 137.4C41.08 137.4 49.69 129.91 56.34 116.12L71.88 84.9H43.25L36.32 106.6ZM129.3 136L116.77 114.79L128.32 98.9H99.9697L91.3597 111.99V98.9H66.0197V136H91.3597V126.13L93.9497 122.84L100.95 136H129.3ZM171.771 97.5C159.661 97.5 152.731 102.68 150.631 110.24L142.371 98.9H130.961V150H156.721V130.61C159.521 134.53 164.771 137.4 173.101 137.4C186.121 137.4 193.751 129.91 193.751 118.01V116.89C193.751 104.99 186.121 97.5 171.771 97.5ZM162.321 121.79C158.331 121.79 156.721 120.18 156.721 117.45C156.721 114.72 158.331 113.11 162.321 113.11C166.381 113.11 167.921 114.65 167.921 117.45C167.921 120.25 166.381 121.79 162.321 121.79ZM228.901 97.5C205.591 97.5 198.661 104.22 197.751 112.62H223.021C223.371 111.29 224.491 110.17 227.991 110.17C231.491 110.17 232.611 111.29 232.611 113.67V114.58L220.781 114.93C200.271 115.56 195.861 119.9 195.861 126.2C195.861 132.64 200.551 137.4 215.531 137.4C230.651 137.4 235.761 131.87 237.231 126.2L246.891 136H258.301V114.72C258.301 104.5 251.441 97.5 228.901 97.5ZM225.961 125.71C222.741 125.71 221.831 124.73 221.831 123.47C221.831 122.21 222.811 121.23 226.381 121.09L232.751 120.88C232.751 123.4 230.721 125.71 225.961 125.71ZM274.931 87.7C274.931 92.6 271.431 96.03 264.291 96.03C257.151 96.03 253.651 92.6 253.651 87.7C253.651 82.38 257.151 78.88 264.291 78.88C271.431 78.88 274.931 82.38 274.931 87.7ZM298.171 87.7C298.171 92.6 294.671 96.03 287.461 96.03C280.321 96.03 276.821 92.6 276.821 87.7C276.821 82.38 280.321 78.88 287.461 78.88C294.671 78.88 298.171 82.38 298.171 87.7ZM288.791 136V98.9H263.031V136H288.791ZM328.23 109.19H319.69V98.9H293.93V136H319.69V125.71H328.23V136H353.99V98.9H328.23V109.19ZM357.605 118.01C357.605 128.72 366.355 137.4 388.755 137.4C410.665 137.4 418.295 129.98 419.905 119.41H393.795C393.235 120.81 391.975 121.86 388.755 121.86C384.975 121.86 383.295 120.25 383.295 117.45C383.295 114.65 384.975 113.04 388.755 113.04C391.905 113.04 393.165 114.09 393.725 115.49H419.905C418.295 104.92 410.665 97.5 388.755 97.5C366.355 97.5 357.605 106.18 357.605 116.89V118.01ZM446.924 107.44V98.9H423.334V136H454.694C475.834 136 481.294 130.61 481.294 121.72C481.294 112.83 475.834 107.44 454.694 107.44H446.924ZM446.924 123.47V119.27H453.154C455.604 119.27 456.304 120.04 456.304 121.37C456.304 122.7 455.604 123.47 453.154 123.47H446.924ZM547.591 136L535.061 114.79L546.611 98.9H518.261L509.651 111.99V98.9H484.311V136H509.651V126.13L512.241 122.84L519.241 136H547.591ZM579.995 97.5C556.685 97.5 549.755 104.22 548.845 112.62H574.115C574.465 111.29 575.585 110.17 579.085 110.17C582.585 110.17 583.705 111.29 583.705 113.67V114.58L571.875 114.93C551.365 115.56 546.955 119.9 546.955 126.2C546.955 132.64 551.645 137.4 566.625 137.4C581.745 137.4 586.855 131.87 588.325 126.2L597.985 136H609.395V114.72C609.395 104.5 602.535 97.5 579.995 97.5ZM577.055 125.71C573.835 125.71 572.925 124.73 572.925 123.47C572.925 122.21 573.905 121.23 577.475 121.09L583.845 120.88C583.845 123.4 581.815 125.71 577.055 125.71ZM43.32 197.67L37.09 182.9H5.59V220H28.76L28.69 200.47L37.37 220H48.5L57.25 200.54L57.18 220H80.42V182.9H49.55L43.32 197.67ZM115.32 221.4C138.07 221.4 146.68 212.79 146.68 202.01V200.89C146.68 190.11 138.07 181.5 115.32 181.5C92.7105 181.5 84.0305 190.11 84.0305 200.89V202.01C84.0305 212.79 92.7105 221.4 115.32 221.4ZM115.39 205.86C111.4 205.86 109.72 204.25 109.72 201.38C109.72 198.65 111.4 197.04 115.39 197.04C119.38 197.04 120.99 198.65 120.99 201.38C120.99 204.25 119.38 205.86 115.39 205.86ZM158.212 195.36C158.002 200.75 156.182 202.5 152.542 202.5C151.072 202.5 149.672 202.22 148.692 202.15V220C150.442 220.35 153.802 220.91 158.002 220.91C173.052 220.91 179.632 214.33 180.542 200.4L180.612 199.07H187.542V220H211.902V182.9H158.702L158.212 195.36ZM246.844 221.4C269.594 221.4 278.204 212.79 278.204 202.01V200.89C278.204 190.11 269.594 181.5 246.844 181.5C224.234 181.5 215.554 190.11 215.554 200.89V202.01C215.554 212.79 224.234 221.4 246.844 221.4ZM246.914 205.86C242.924 205.86 241.244 204.25 241.244 201.38C241.244 198.65 242.924 197.04 246.914 197.04C250.904 197.04 252.514 198.65 252.514 201.38C252.514 204.25 250.904 205.86 246.914 205.86ZM344.755 182.9H290.995L290.505 192.56C290.225 198.16 289.455 201.38 288.265 203.55H280.145V231.27H304.015V220H330.265V231.27H354.135V203.55H344.755V182.9ZM311.225 205.37C311.925 203.97 312.415 202.01 312.555 199.14V197.88H320.955V205.37H311.225ZM381.026 191.44V182.9H357.436V220H388.796C409.936 220 415.396 214.61 415.396 205.72C415.396 196.83 409.936 191.44 388.796 191.44H381.026ZM381.026 207.47V203.27H387.256C389.706 203.27 390.406 204.04 390.406 205.37C390.406 206.7 389.706 207.47 387.256 207.47H381.026Z" fill="white"/>
</svg>
