<?xml version="1.0" encoding="utf-8"?>
<!-- Generator: Adobe Illustrator 25.2.3, SVG Export Plug-In . SVG Version: 6.00 Build 0)  -->
<svg version="1.1" id="Layer_1" xmlns="http://www.w3.org/2000/svg" xmlns:xlink="http://www.w3.org/1999/xlink" x="0px" y="0px"
	 viewBox="0 0 1910.87 125.86" style="enable-background:new 0 0 1910.87 125.86;" xml:space="preserve">
<style type="text/css">
	.st0{fill:none;stroke:#FFFFFF;stroke-width:0.5;stroke-miterlimit:10;}
</style>
<path class="st0" d="M112.29,5.73h71.45v114.39H128.9l0.16-55.94l-25.86,55.94H80.79l-25.7-55.94l0.16,55.94h-55V5.73h73.49
	l19.12,44.03L112.29,5.73z M344.52,120.12h-58.45L282,108.06h-35.57l-4.23,12.07h-58.45L228.88,5.73h70.36L344.52,120.12z
	 M264.14,44.75l-8.62,28.52h17.24L264.14,44.75z M431.96,5.73h60.64v114.39h-60.64V84.71h-26.64v35.41h-60.64V5.73h60.64v35.41
	h26.64V5.73z M565.95,120.12h-61.11V5.73h61.11V120.12z M716.06,13.1c50.46,0.78,71.77,22.88,71.77,47.95v3.13
	c0,25.07-21.31,47.17-71.77,47.79h-7.36v13.63h-56.88v-13.63h-7.37c-50.46-0.63-71.77-22.72-71.77-47.79v-3.13
	c0-25.07,21.31-47.17,71.77-47.95h7.37V0.25h56.88V13.1H716.06z M630.98,62.93c0,5.96,3.6,10.5,14.1,10.5h6.74V51.8h-6.74
	c-10.5,0-14.1,4.7-14.1,10.5V62.93z M729.54,62.3c0-5.8-3.6-10.5-14.1-10.5h-6.74v21.62h6.74c10.5,0,14.1-4.54,14.1-10.5V62.3z
	 M794.42,120.12V5.73H923.7v35.88h-72.08v9.09h69.89v23.97h-69.89v9.25h73.02v36.2H794.42z M931.53,59.95
	c0-32.44,25.07-57.35,80.23-57.35c54.37,0,77.25,21,80.07,55.31h-62.52c-1.41-5.17-5.96-9.87-17.55-9.87
	c-12.38,0-18.33,5.96-18.33,14.26v1.25c0,8.31,5.96,14.26,18.33,14.26c11.6,0,16.14-4.7,17.55-9.87h62.52
	c-2.82,34.32-25.7,55.31-80.07,55.31c-55.16,0-80.23-24.92-80.23-57.35V59.95z M1096.55,52.12V5.73h145.1v46.38h-42v68.01h-61.11
	V52.12H1096.55z M1334.57,5.73h64.09l-34.79,69.89c-14.89,30.87-34.16,47.64-75.84,47.64c-13.95,0-25.54-1.72-32.12-3.13v-38.7
	c2.82,0.31,6.11,0.78,9.09,0.78c6.89,0,8.46-1.57,9.87-3.61L1238.2,5.73h65.66l15.2,48.58L1334.57,5.73z M1479.06,52.12v21.62
	h-28.99c1.57,5.64,6.89,9.56,18.8,9.56c12.69,0,17.24-4.54,18.65-11.12h62.05c-2.98,30.24-25.23,51.08-80.54,51.08
	c-55.94,0-81.01-24.92-81.01-57.35v-5.96c0-32.44,25.07-57.35,81.01-57.35c55.31,0,77.56,20.84,80.54,51.08h-62.05
	c-1.41-6.58-5.96-11.12-18.65-11.12c-11.91,0-17.24,3.92-18.8,9.56H1479.06z M1669.76,5.73h71.45v114.39h-54.84l0.16-55.94
	l-25.86,55.94h-22.41l-25.7-55.94l0.16,55.94h-55V5.73h73.49l19.12,44.03L1669.76,5.73z M1749.53,65.91v-5.96
	c0-32.44,25.07-57.35,80.54-57.35c55.47,0,80.54,24.92,80.54,57.35v5.96c0,32.44-25.07,57.35-80.54,57.35
	C1774.6,123.26,1749.53,98.34,1749.53,65.91z M1848.56,63.55V62.3c0-8.31-5.8-14.26-18.49-14.26c-12.69,0-18.65,5.96-18.65,14.26
	v1.25c0,8.31,5.96,14.26,18.65,14.26C1842.76,77.81,1848.56,71.86,1848.56,63.55z"/>
</svg>
