<svg width="200" height="15" viewBox="0 0 200 15" fill="none" xmlns="http://www.w3.org/2000/svg">
<g clip-path="url(#clip0_161_1467)">
<path d="M112.798 1.45958L109.788 12.5685H107.978L111.231 0.549805H114.345L116.572 11.3838L118.782 0.549805H121.792L125.045 12.5685H123.287L120.313 1.58018L118.069 12.5685H115.076L112.798 1.45958Z" fill="white" fill-opacity="0.9"/>
<path d="M140.462 6.54225C140.462 7.65243 140.287 8.61187 139.94 9.41879C139.594 10.2257 139.105 10.8925 138.48 11.4192C137.852 11.946 137.105 12.3326 136.235 12.5791C135.365 12.8256 134.407 12.948 133.363 12.948C132.319 12.948 131.363 12.8132 130.492 12.5436C129.62 12.274 128.874 11.8732 128.247 11.3412C127.62 10.8092 127.133 10.1459 126.786 9.34962C126.437 8.55334 126.263 7.62406 126.263 6.55999C126.263 5.47286 126.437 4.52052 126.786 3.70119C127.135 2.88363 127.622 2.19908 128.247 1.64931C128.874 1.09954 129.622 0.688098 130.492 0.413214C131.361 0.138329 132.319 0 133.363 0C134.407 0 135.363 0.143649 136.235 0.429175C137.105 0.7147 137.852 1.13323 138.48 1.683C139.107 2.23277 139.594 2.91378 139.94 3.72602C140.287 4.53826 140.462 5.47641 140.462 6.54225ZM128.073 6.59368C128.073 7.38287 128.197 8.07983 128.447 8.67926C128.696 9.28046 129.05 9.78412 129.509 10.1902C129.967 10.5964 130.524 10.9067 131.178 11.1178C131.834 11.3306 132.562 11.4352 133.361 11.4352C134.161 11.4352 134.889 11.3323 135.545 11.1266C136.201 10.9209 136.756 10.6141 137.214 10.208C137.673 9.80185 138.027 9.29819 138.276 8.69699C138.526 8.09579 138.65 7.39528 138.65 6.59368C138.65 5.8045 138.526 5.09689 138.276 4.47264C138.027 3.84838 137.673 3.31635 137.214 2.87653C136.756 2.43672 136.199 2.09799 135.545 1.86389C134.889 1.6298 134.161 1.51098 133.361 1.51098C132.562 1.51098 131.834 1.62271 131.178 1.84616C130.522 2.06961 129.965 2.39593 129.509 2.8251C129.05 3.25428 128.696 3.78454 128.447 4.41411C128.199 5.04191 128.073 5.76903 128.073 6.59368Z" fill="white" fill-opacity="0.9"/>
<path d="M155.111 0.549805V12.5685H153.424V2.06078H146.498L146.115 7.5904C146.034 8.70058 145.86 9.58553 145.594 10.2435C145.326 10.9014 144.99 11.4033 144.584 11.7456C144.178 12.0896 143.711 12.3131 143.184 12.416C142.656 12.5188 142.097 12.5702 141.506 12.5702V10.9901C142.097 10.9901 142.57 10.9121 142.924 10.7578C143.278 10.6035 143.556 10.38 143.759 10.0874C143.962 9.79479 144.104 9.43833 144.185 9.01448C144.266 8.59062 144.336 8.11002 144.394 7.57266L144.933 0.549805H155.111Z" fill="white" fill-opacity="0.9"/>
<path d="M171.049 6.54225C171.049 7.65243 170.875 8.61187 170.528 9.41879C170.181 10.2257 169.693 10.8925 169.067 11.4192C168.44 11.946 167.692 12.3326 166.823 12.5791C165.953 12.8256 164.995 12.948 163.951 12.948C162.907 12.948 161.951 12.8132 161.079 12.5436C160.208 12.274 159.462 11.8732 158.835 11.3412C158.208 10.8092 157.721 10.1459 157.374 9.34962C157.025 8.55334 156.851 7.62406 156.851 6.55999C156.851 5.47286 157.025 4.52052 157.374 3.70119C157.722 2.88363 158.209 2.19908 158.835 1.64931C159.462 1.09954 160.21 0.688098 161.079 0.413214C161.949 0.138329 162.905 0 163.949 0C164.993 0 165.949 0.143649 166.821 0.429175C167.691 0.7147 168.438 1.13323 169.065 1.683C169.693 2.23277 170.18 2.91378 170.526 3.72602C170.875 4.53826 171.049 5.47641 171.049 6.54225ZM158.66 6.59368C158.66 7.38287 158.784 8.07983 159.034 8.67926C159.284 9.28046 159.638 9.78412 160.096 10.1902C160.555 10.5964 161.112 10.9067 161.766 11.1178C162.422 11.3306 163.15 11.4352 163.949 11.4352C164.749 11.4352 165.477 11.3323 166.133 11.1266C166.789 10.9209 167.344 10.6141 167.802 10.208C168.26 9.80185 168.614 9.29819 168.864 8.69699C169.114 8.09579 169.238 7.39528 169.238 6.59368C169.238 5.8045 169.114 5.09689 168.864 4.47264C168.614 3.84838 168.26 3.31635 167.802 2.87653C167.344 2.43672 166.787 2.09799 166.133 1.86389C165.477 1.6298 164.749 1.51098 163.949 1.51098C163.15 1.51098 162.422 1.62271 161.766 1.84616C161.11 2.06961 160.553 2.39593 160.096 2.8251C159.638 3.25428 159.284 3.78454 159.034 4.41411C158.784 5.04191 158.66 5.76903 158.66 6.59368Z" fill="white" fill-opacity="0.9"/>
<path d="M173.797 12.5685V14.9378H172.092V11.0575H172.44C173.032 11.0238 173.522 10.7808 173.91 10.3286C174.298 9.87637 174.615 9.31064 174.859 8.62786C175.104 7.94686 175.289 7.19669 175.416 6.37913C175.544 5.56157 175.634 4.76884 175.686 4.00094C175.738 3.23481 175.767 2.53784 175.772 1.91536C175.777 1.29111 175.792 0.837103 175.815 0.549805H185.489V11.0575H187.21V14.9378H185.505V12.5685H173.797ZM177.468 2.06078C177.434 2.74711 177.393 3.50082 177.346 4.31838C177.3 5.13772 177.206 5.95528 177.068 6.77461C176.929 7.59394 176.733 8.37426 176.485 9.11911C176.236 9.86396 175.891 10.5095 175.45 11.0593H183.785V2.06078H177.468Z" fill="white" fill-opacity="0.9"/>
<path d="M200 11.0575V12.5685H188.777V11.0575H193.493V2.06078H188.777V0.549805H200V2.06078H195.198V11.0575H200Z" fill="white" fill-opacity="0.9"/>
<path d="M15.1043 0.496582V12.6483H14.2183V0.576387H14.7431L8.02926 12.6483H7.07682L0.361209 0.576387H0.88595V12.6483H0V0.496582H1.346L7.97894 12.5348H7.14151L13.7583 0.496582H15.1043Z" fill="white" fill-opacity="0.9"/>
<path d="M24.0698 0.496582L30.293 12.6483H29.2579L23.2162 0.72181H24.0213L17.9616 12.6483H16.9283L23.1497 0.496582H24.0698ZM19.1764 9.40639V8.59592H27.9119V9.40639H19.1764Z" fill="white" fill-opacity="0.9"/>
<path d="M32.1152 0.496582H33.0353V12.6483H32.1152V0.496582ZM32.5411 6.1663H43.115V6.97676H32.5411V6.1663ZM42.4573 0.496582H43.3774V12.6483H42.4573V0.496582Z" fill="white" fill-opacity="0.9"/>
<path d="M46.5618 0.496582H47.4819V12.6483H46.5618V0.496582Z" fill="white" fill-opacity="0.9"/>
<path d="M54.4437 10.2821C53.5128 10.2821 52.6897 10.11 51.9727 9.76421C51.2557 9.41839 50.695 8.94133 50.2907 8.33126C49.8863 7.72119 49.6833 7.02246 49.6833 6.23327C49.6833 5.43345 49.8863 4.73293 50.2907 4.12641C50.695 3.52167 51.2575 3.04638 51.9727 2.70056C52.6897 2.35474 53.5128 2.18271 54.4437 2.18271H58.9758V2.99318H54.4275C53.6619 2.99318 52.9934 3.12796 52.4238 3.3993C51.8541 3.66886 51.4138 4.04484 51.1011 4.52544C50.7884 5.00605 50.6339 5.57532 50.6339 6.23504C50.6339 6.88235 50.7902 7.44986 51.1011 7.93578C51.412 8.42171 51.8541 8.79945 52.4238 9.07079C52.9934 9.34035 53.6601 9.47514 54.4275 9.47514H58.992V10.2856H54.4437V10.2821ZM58.5481 12.8092V0.333008H59.4682V12.8092H58.5481ZM59.0244 10.2821V9.47159H63.5889C64.3544 9.47159 65.0229 9.33681 65.5908 9.06724C66.1605 8.79768 66.6008 8.41993 66.9135 7.93224C67.2261 7.44454 67.3807 6.87881 67.3807 6.2315C67.3807 5.57355 67.2243 5.0025 66.9135 4.52189C66.6008 4.04129 66.1605 3.66532 65.5908 3.39575C65.0211 3.12619 64.3544 2.98963 63.5889 2.98963H59.0405V2.18094H63.5727C64.5144 2.18094 65.341 2.35474 66.0509 2.69879C66.7625 3.04461 67.3196 3.5199 67.7257 4.12464C68.1301 4.72939 68.3331 5.43167 68.3331 6.2315C68.3331 7.02068 68.1301 7.71942 67.7257 8.32949C67.3214 8.93955 66.7625 9.41839 66.0509 9.76243C65.3392 10.1083 64.5126 10.2803 63.5727 10.2803H59.0244V10.2821Z" fill="white" fill-opacity="0.9"/>
<path d="M72.0261 6.57242L71.009 12.5667L70.4177 11.8378H80.1039V12.6483H70.0889L71.124 6.57242L70.0889 0.496582H80.023V1.30705H70.4177L71.009 0.594122L72.0261 6.57242ZM79.6941 6.1663V6.97676H71.5014V6.1663H79.6941Z" fill="white" fill-opacity="0.9"/>
<path d="M94.6672 8.11154C94.5576 9.04082 94.2216 9.86193 93.6573 10.5749C93.093 11.2878 92.3544 11.8446 91.4415 12.2437C90.5268 12.6427 89.4899 12.8431 88.3308 12.8431C86.9956 12.8431 85.8239 12.5789 84.8176 12.0486C83.8112 11.5201 83.0277 10.7824 82.4706 9.8371C81.9117 8.89186 81.6332 7.80296 81.6332 6.57218C81.6332 5.33077 81.9117 4.23833 82.4706 3.2984C83.0295 2.35847 83.8112 1.62426 84.8176 1.09577C85.8239 0.567287 86.9956 0.30127 88.3308 0.30127C89.4917 0.30127 90.5286 0.501669 91.4415 0.900695C92.3544 1.29972 93.0948 1.85481 93.6573 2.56242C94.2216 3.27002 94.5576 4.0929 94.6672 5.03283H93.7148C93.5836 4.24365 93.2763 3.55909 92.7947 2.97563C92.3131 2.39217 91.6895 1.94171 90.924 1.62249C90.1566 1.30327 89.2815 1.14366 88.2967 1.14366C87.1483 1.14366 86.1438 1.36711 85.283 1.81579C84.424 2.26448 83.7591 2.89405 83.2883 3.70274C82.8174 4.51321 82.582 5.4691 82.582 6.57041C82.582 7.66108 82.8174 8.6152 83.2883 9.43098C83.7591 10.2468 84.424 10.8781 85.283 11.3268C86.142 11.7755 87.1466 11.9989 88.2967 11.9989C89.2815 11.9989 90.1566 11.8393 90.924 11.5201C91.6895 11.2009 92.3131 10.7504 92.7947 10.167C93.2763 9.5835 93.5818 8.89718 93.7148 8.10976H94.6672V8.11154Z" fill="white" fill-opacity="0.9"/>
<path d="M94.8326 0.496582H106.72V1.30705H94.8326V0.496582ZM100.315 0.982507H101.235V12.6483H100.315V0.982507Z" fill="white" fill-opacity="0.9"/>
</g>
<defs>
<clipPath id="clip0_161_1467">
<rect width="200" height="14.9378" fill="white"/>
</clipPath>
</defs>
</svg>
