<?xml version="1.0" encoding="utf-8"?>
<!-- Generator: Adobe Illustrator 25.2.3, SVG Export Plug-In . SVG Version: 6.00 Build 0)  -->
<svg version="1.1" id="Layer_1" xmlns="http://www.w3.org/2000/svg" xmlns:xlink="http://www.w3.org/1999/xlink" x="0px" y="0px"
	 viewBox="0 0 1916.79 110.31" style="enable-background:new 0 0 1916.79 110.31;" xml:space="preserve">
<style type="text/css">
	.st0{fill:none;stroke:#000000;stroke-width:0.5;stroke-miterlimit:10;}
</style>
<path class="st0" d="M507.5,110.06c0.25-0.45,0.5-0.92,0.73-1.4c3.6-7.42,5.41-19.7,5.41-36.85c0-8.94-0.4-18.95-1.19-30.05
	c-0.8-11.1-1.98-23.63-3.57-37.61h167.31v105.91 M565.18,53.42C565.18,53.42,565.18,53.42,565.18,53.42l55.24,0.01v56.63
	 M565.18,53.43c0,0.09,0.03,0.74,0.23,4.97c0.35,7.5,0.54,14.63,0.54,21.4c0,11.2-0.55,21.28-1.66,30.26 M336.1,110.06
	c-1.93-1.76-3.6-3.74-5.01-5.94C327.7,98.86,326,92.56,326,85.21c0-7.35,1.7-13.66,5.09-18.92c3.38-5.26,8.24-9.29,14.59-12.1
	c6.34-2.81,13.9-4.22,22.69-4.22s16.36,1.41,22.7,4.22c6.34,2.81,11.2,6.84,14.59,12.1c3.39,5.26,5.08,11.57,5.08,18.92
	c0,7.35-1.69,13.65-5.08,18.91c-1.42,2.2-3.09,4.18-5.02,5.94 M273.15,110.06c-2.23-7.71-3.35-15.99-3.35-24.85
	c0-17.01,4.11-31.89,12.32-44.64c8.22-12.75,19.71-22.66,34.48-29.72c14.77-7.06,32.03-10.6,51.77-10.6c19.75,0,37,3.54,51.77,10.6
	c14.77,7.06,26.27,16.97,34.48,29.72c8.22,12.75,12.32,27.63,12.32,44.64c0,8.86-1.11,17.14-3.35,24.85 M196.96,52.49v0.2v57.37
	 M125.25,109.88l0.01-0.02L163.67,4.15h86.25v105.91 M0.25,110.06V4.15H86.5l38.76,105.71l0.01,0.02 M53.21,52.69v0.33v57.04
	 M174.53,110.06l22.35-57.37l0.08-0.2v-0.05 M53.08,52.69l0.13,0.33l22.32,57.04 M1802.4,53.86h-58.36V4.15h172.5v49.71h-58.37
	 M1417.63,53.86h-58.36V4.15h172.5v49.71h-58.37 M1203.63,48.34l-0.1-0.1 M880.9,40.57c-8.21-12.75-19.71-22.66-34.48-29.72
	s-32.03-10.6-51.77-10.6c-19.75,0-37,3.54-51.77,10.6c-14.77,7.06-26.27,16.97-34.48,29.72c-8.21,12.75-12.32,27.63-12.32,44.64
	c0,8.86,1.12,17.14,3.35,24.85h62.95c-1.93-1.76-3.6-3.74-5.02-5.94c-3.39-5.26-5.08-11.56-5.08-18.91c0-7.35,1.69-13.66,5.08-18.92
	c3.39-5.26,8.25-9.29,14.59-12.1c6.34-2.81,13.91-4.22,22.7-4.22c8.79,0,16.35,1.41,22.7,4.22c6.34,2.81,11.2,6.84,14.59,12.1
	c3.38,5.26,5.08,11.57,5.08,18.92c0,7.35-1.7,13.65-5.08,18.91c-1.42,2.2-3.09,4.18-5.02,5.94h62.95
	c2.23-7.71,3.35-15.99,3.35-24.85C893.22,68.2,889.11,53.32,880.9,40.57z M981.91,110.06c0.6-1.59,1.16-3.24,1.67-4.97
	c3.17-10.66,4.76-24.06,4.76-40.2c0-4.61-0.24-12.32-0.24-12.32h56.44v57.49 M926.61,110.06c2.71-5.11,4.88-11.09,6.5-17.93
	c2.52-10.67,3.78-23.64,3.78-38.92c0-7.34-0.29-15.05-0.87-23.12c-0.57-8.07-1.44-16.72-2.59-25.94h166.88v105.91 M1312.09,110.06
	c0.04-0.92,0.06-1.86,0.06-2.8c0-11.96-2.74-22.38-8.22-31.24c-5.47-8.86-13.43-15.71-23.88-20.54
	c-10.45-4.82-23.02-7.24-37.72-7.24h-38.7V4.15h-55.77v105.91 M1203.63,110.06V91.69h0.02h35c5.48,0,9.73,1.34,12.76,4
	c3.02,2.67,4.54,6.52,4.54,11.57c0,0.98-0.06,1.91-0.19,2.8 M1417.63,110.06v-56.2 M1473.4,110.06v-56.2 M1596.69,110.06
	l-60.6-105.91h61.39L1639,77.67l0.04,0.07 M1639.04,77.74l0.05-0.09l41.18-73.5h60.1l-60.16,105.91 M1802.4,110.06v-56.2
	 M1858.17,110.06v-56.2"/>
</svg>
